<svg width="40" height="40" viewBox="0 0 40 40" fill="none" xmlns="http://www.w3.org/2000/svg">
<path d="M14.1745 23.6559C16.163 23.6559 17.7749 22.044 17.7749 20.0555C17.7749 18.0671 16.163 16.4552 14.1745 16.4552C12.1861 16.4552 10.5741 18.0671 10.5741 20.0555C10.5741 22.044 12.1861 23.6559 14.1745 23.6559Z" fill="#41C678"/>
<path d="M14.1745 23.6559C16.163 23.6559 17.7749 22.044 17.7749 20.0555C17.7749 18.0671 16.163 16.4552 14.1745 16.4552C12.1861 16.4552 10.5741 18.0671 10.5741 20.0555C10.5741 22.044 12.1861 23.6559 14.1745 23.6559Z" fill="#41C678"/>
<path fill-rule="evenodd" clip-rule="evenodd" d="M5.26361 0.255875L18.3773 0.330731C22.8572 0.330731 27.1536 2.40697 30.3214 6.1027C33.1113 9.35757 34.8245 13.6338 35.1935 18.178H19.4706C18.9131 16.5839 17.6587 15.3169 16.0727 14.7423V8.80032C16.0727 6.74835 14.4093 5.0849 12.3573 5.0849V5.1018H4.30108V1.21426C4.30034 0.68303 4.73239 0.252843 5.26361 0.255875ZM12.3573 14.6999V8.76845H4.30108V18.178H8.83823C9.40991 16.5435 10.7141 15.253 12.3573 14.6999ZM8.8202 21.8447H4.30108V31.3426H12.3573V25.3752C10.6966 24.8162 9.38216 23.504 8.8202 21.8447ZM16.0727 25.3328L16.0808 31.2807C16.0836 33.3391 14.4157 35.0093 12.3573 35.0093H4.30108V38.8607C4.30108 39.3487 4.69664 39.7442 5.18461 39.7442H18.3773C22.8572 39.7442 27.1536 37.668 30.3214 33.9722C33.122 30.7049 34.8376 26.4084 35.1977 21.8447H19.4887C18.9404 23.4634 17.6761 24.7519 16.0727 25.3328Z" fill="#41C678"/>
</svg>
